<svg width="64" height="67" viewBox="0 0 64 67" fill="none" xmlns="http://www.w3.org/2000/svg">
<path d="M63.5117 42.5864L60.5556 40.5678C55.5755 37.1663 55.5755 29.8347 60.5556 26.4332L63.5117 24.4146C64.432 23.7827 63.9619 22.3482 62.8464 22.3761L59.2687 22.4754C53.2329 22.6423 48.9142 16.7135 50.9381 11.039L52.1373 7.67326C52.5118 6.62817 51.2847 5.73806 50.4003 6.41757L47.5636 8.59517C42.7788 12.2669 35.7908 10.0019 34.0856 4.22804L33.0737 0.798719C32.759 -0.26624 31.241 -0.26624 30.9263 0.798719L29.9144 4.22804C28.2092 10.0019 21.2212 12.2669 16.4364 8.59517L13.5997 6.41757C12.7153 5.73806 11.4882 6.62817 11.8627 7.67326L13.0619 11.039C15.0858 16.7135 10.7671 22.6423 4.73126 22.4754L1.1536 22.3761C0.0380683 22.3482 -0.432048 23.7827 0.488264 24.4146L3.44442 26.4332C8.42447 29.8347 8.42447 37.1663 3.44442 40.5678L0.488264 42.5864C-0.432048 43.2143 0.0380683 44.6528 1.1536 44.621L4.73126 44.5256C10.7671 44.3587 15.0858 50.2875 13.0619 55.958L11.8627 59.3238C11.4882 60.3728 12.7153 61.2629 13.5997 60.5834L16.4364 58.4058C21.2212 54.7341 28.2092 56.9991 29.9144 62.7729L30.9263 66.1983C31.241 67.2672 32.759 67.2672 33.0737 66.1983L34.0856 62.7729C35.7908 56.9991 42.7788 54.7341 47.5636 58.4058L50.4003 60.5834C51.2847 61.2629 52.5118 60.3728 52.1373 59.3238L50.9381 55.958C48.9142 50.2875 53.2329 44.3587 59.2687 44.5256L62.8464 44.621C63.9619 44.6528 64.432 43.2143 63.5117 42.5864ZM32.002 53.9354C20.6833 53.9354 11.5081 44.7879 11.5081 33.4985C11.5081 22.2092 20.6833 13.0616 32.002 13.0616C43.3206 13.0616 52.4919 22.2131 52.4919 33.4985C52.4919 44.7839 43.3167 53.9354 32.002 53.9354Z" fill="white"/>
</svg>
