<svg width="242" height="21" viewBox="0 0 242 21" fill="none" xmlns="http://www.w3.org/2000/svg">
<g clip-path="url(#clip0_2004_556)">
<path d="M18.5724 6.5102L16.6149 6.62322C16.3819 3.88802 15.1935 2.53173 13.0263 2.53173H6.75782V9.08716H9.95031C11.0688 9.08716 11.7213 8.00212 11.8844 5.80944H13.6555L13.236 14.2637H11.5349C11.3485 12.0258 10.7659 10.8956 9.76389 10.8956H6.78113V18.4456H12.0476C15.1701 18.4456 16.9179 16.5016 17.2441 12.6361L19.2481 12.817L18.5724 20.5479H0V19.0107C1.6545 19.0107 2.4934 18.6038 2.4934 17.7675V3.25508C2.4934 2.4187 1.6545 2.01181 0 2.01181V0.40686H18.5724V6.5102Z" fill="white"/>
<path d="M46.862 2.01181C46.0231 2.01181 45.4172 2.07963 45.0677 2.21526C44.7181 2.35089 44.4851 2.55433 44.3919 2.80299L37.401 20.5705H33.3463L26.6351 2.82559C26.5186 2.55433 26.2623 2.35089 25.8428 2.21526C25.4234 2.07963 24.934 2.01181 24.3281 2.01181V0.40686H34.5348V2.01181H32.0647C31.5287 2.01181 31.2491 2.17005 31.2491 2.46391C31.2491 2.57694 31.2724 2.68996 31.3423 2.82559L36.7019 17.3154L42.0616 3.05164C42.1082 2.91601 42.1548 2.80299 42.1548 2.66736C42.1548 2.23786 41.7353 2.01181 40.8964 2.01181H39.172V0.40686H46.8154V2.01181H46.862Z" fill="white"/>
<path d="M70.3047 6.5102L68.3472 6.62322C68.1142 3.88802 66.9258 2.53173 64.7586 2.53173H58.4901V9.08716H61.6826C62.8011 9.08716 63.4536 8.00212 63.6167 5.80944H65.3878L64.9683 14.2637H63.2672C63.0808 12.0258 62.4982 10.8956 61.4962 10.8956H58.5134V18.4456H63.7799C66.9024 18.4456 68.6502 16.5016 68.9764 12.6361L70.9804 12.817L70.3047 20.5479H51.7323V19.0107C53.3868 19.0107 54.2257 18.6038 54.2257 17.7675V3.25508C54.2257 2.4187 53.3868 2.01181 51.7323 2.01181V0.40686H70.3047V6.5102Z" fill="white"/>
<path d="M99.107 2.01181C97.4525 2.01181 96.6136 2.4187 96.6136 3.25508V20.5705H91.4403L80.9074 4.31752V17.7675C80.9074 18.6038 81.7463 19.0107 83.4008 19.0107V20.5479H76.1071V19.0107C77.7616 19.0107 78.6005 18.6038 78.6005 17.7675V3.25508C78.6005 2.4187 77.7616 2.01181 76.1071 2.01181V0.40686H83.6106L94.3299 17.0667V3.25508C94.3299 2.4187 93.491 2.01181 91.8365 2.01181V0.40686H99.1303V2.01181H99.107Z" fill="white"/>
<path d="M124.6 8.70292L122.829 8.79334C122.759 7.57267 122.62 6.57805 122.433 5.76427C122.247 4.95049 121.967 4.31756 121.641 3.84285C121.315 3.36815 120.918 3.02907 120.452 2.84823C119.986 2.66739 119.427 2.55437 118.798 2.55437H116.281V17.7675C116.281 18.6039 117.12 19.0108 118.798 19.0108V20.5479H109.523V19.0108C111.178 19.0108 112.017 18.6039 112.017 17.7675V2.55437H109.477C108.848 2.55437 108.288 2.64479 107.822 2.84823C107.356 3.05168 106.96 3.36815 106.634 3.84285C106.308 4.31756 106.051 4.9731 105.841 5.76427C105.632 6.55545 105.515 7.57267 105.445 8.79334L103.674 8.70292V0.429504H124.624V8.70292H124.6Z" fill="white"/>
<path d="M140.236 8.2979e-05C141.728 8.2979e-05 143.103 0.180923 144.384 0.542602C145.666 0.904281 146.761 1.49201 147.693 2.30579C148.626 3.11957 149.348 4.2046 149.861 5.5383C150.373 6.87199 150.653 8.52215 150.653 10.4662C150.653 12.0711 150.42 13.5178 149.977 14.8063C149.534 16.0948 148.859 17.2025 147.973 18.1067C147.088 19.0108 145.946 19.7116 144.594 20.2315C143.243 20.7288 141.658 20.9775 139.84 20.9775C138.372 20.9775 136.997 20.7966 135.739 20.4576C134.481 20.1185 133.385 19.5534 132.453 18.7622C131.521 17.971 130.799 16.9312 130.263 15.6427C129.727 14.3542 129.471 12.7719 129.471 10.8957C129.471 9.2229 129.68 7.70837 130.076 6.35207C130.473 4.99578 131.125 3.86553 132.011 2.91612C132.896 1.96671 134.015 1.24336 135.366 0.746046C136.718 0.248737 138.349 -0.022522 140.26 -0.022522L140.236 8.2979e-05ZM140.376 2.21537C139.211 2.21537 138.232 2.3736 137.394 2.71268C136.555 3.05175 135.879 3.52646 135.343 4.15939C134.807 4.79233 134.411 5.5609 134.178 6.4877C133.921 7.41451 133.805 8.45434 133.805 9.62979C133.805 11.4608 133.945 12.9527 134.224 14.1282C134.504 15.3036 134.9 16.2078 135.436 16.886C135.949 17.5641 136.601 18.0388 137.347 18.2875C138.093 18.5588 138.932 18.6718 139.864 18.6718C141.099 18.6718 142.124 18.4909 142.963 18.1519C143.802 17.7902 144.478 17.2929 144.967 16.6147C145.48 15.9366 145.829 15.1002 146.062 14.083C146.295 13.0884 146.388 11.9355 146.388 10.6244C146.388 8.95164 146.249 7.55014 145.946 6.4651C145.643 5.38006 145.247 4.52107 144.734 3.88813C144.221 3.2552 143.592 2.8031 142.846 2.55444C142.101 2.30579 141.285 2.17016 140.4 2.17016L140.376 2.21537Z" fill="white"/>
<path d="M177.265 17.5866C177.265 18.4908 176.985 19.2368 176.449 19.8471C175.913 20.4575 174.981 20.7513 173.676 20.7513C172.231 20.7513 171.183 20.4122 170.577 19.7567C169.971 19.1012 169.645 18.2874 169.645 17.2928V15.2583C169.645 13.7438 169.412 12.6361 168.969 11.9354C168.526 11.2346 167.711 10.8956 166.499 10.8956H162.258V17.7223C162.258 18.5586 163.283 18.9655 165.357 18.9655V20.5479H155.477V18.9655C157.131 18.9655 157.97 18.5586 157.97 17.7223V3.25508C157.97 2.4187 157.131 2.01181 155.477 2.01181V0.40686H167.454C168.363 0.40686 169.272 0.474675 170.134 0.5877C171.02 0.700725 171.789 0.949379 172.464 1.31106C173.14 1.67274 173.699 2.19265 174.096 2.8482C174.515 3.50374 174.701 4.38533 174.701 5.47037C174.701 6.17112 174.585 6.80406 174.375 7.32398C174.142 7.86649 173.862 8.31859 173.49 8.70288C173.117 9.08716 172.721 9.38103 172.231 9.62968C171.765 9.85573 171.276 10.0366 170.787 10.1496C171.276 10.3078 171.695 10.5339 172.091 10.7825C172.488 11.0538 172.814 11.3703 173.07 11.7772C173.327 12.184 173.536 12.6813 173.676 13.2465C173.816 13.8342 173.886 14.5124 173.886 15.3035V17.7901C173.886 18.197 173.979 18.4908 174.142 18.6717C174.305 18.8525 174.538 18.9655 174.795 18.9655C175.074 18.9655 175.307 18.8751 175.47 18.6717C175.634 18.4682 175.727 18.197 175.727 17.7901V16.479H177.218V17.564L177.265 17.5866ZM162.281 2.68996V9.08716H166.872C167.99 9.08716 168.852 8.83851 169.435 8.3412C170.041 7.84389 170.32 7.00751 170.32 5.80944C170.32 3.72979 169.155 2.68996 166.848 2.68996H162.258H162.281Z" fill="white"/>
<path d="M191.386 2.01181C189.732 2.01181 188.893 2.4187 188.893 3.25508V17.7675C188.893 18.6038 189.732 19.0107 191.386 19.0107V20.5479H182.112V19.0107C183.789 19.0107 184.628 18.6038 184.628 17.7675V3.25508C184.628 2.4187 183.789 2.01181 182.112 2.01181V0.40686H191.386V2.01181Z" fill="white"/>
<path d="M216.763 18.1744C216.949 18.7169 217.718 18.9881 219.047 18.9881V20.5705H208.817V18.9881H211.287C211.823 18.9881 212.102 18.8073 212.102 18.4682C212.102 18.423 212.079 18.31 212.009 18.1744L210.891 15.2357H202.315L201.29 17.9483C201.29 17.9483 201.243 18.1744 201.243 18.2648C201.243 18.7395 201.663 18.9655 202.478 18.9655H204.203V20.5479H196.559V18.9429C197.352 18.9429 197.911 18.8751 198.284 18.7621C198.657 18.6265 198.89 18.4456 198.983 18.197L205.974 0.40686H210.028L216.763 18.1744ZM203.038 13.2465H210.192L206.65 3.70718L203.038 13.2465Z" fill="white"/>
<path d="M240.951 7.45961L239.087 7.70826C238.971 6.75885 238.714 5.94508 238.341 5.26693C237.945 4.58878 237.456 4.00105 236.85 3.54895C236.244 3.09685 235.568 2.75778 234.776 2.55433C233.984 2.32828 233.145 2.23786 232.236 2.23786C230.861 2.23786 229.743 2.46391 228.904 2.91601C228.065 3.36811 227.622 4.09147 227.622 5.10869C227.622 5.71903 227.832 6.21634 228.228 6.55541C228.648 6.91709 229.183 7.18835 229.859 7.4144C230.535 7.64045 231.304 7.82129 232.166 7.97952C233.028 8.11515 233.914 8.27339 234.799 8.45423C235.685 8.63507 236.57 8.83851 237.433 9.10977C238.295 9.38103 239.064 9.74271 239.74 10.1948C240.415 10.6469 240.951 11.2346 241.371 11.958C241.79 12.6814 241.977 13.5629 241.977 14.648C241.977 15.733 241.79 16.6824 241.394 17.4736C241.021 18.2648 240.462 18.9203 239.763 19.4628C239.064 19.9827 238.202 20.367 237.223 20.6383C236.244 20.8869 235.126 21.0226 233.914 21.0226C232.702 21.0226 231.607 20.8869 230.721 20.6383C229.813 20.367 229.02 20.028 228.298 19.5759C227.972 19.3498 227.645 19.2594 227.343 19.2594C227.203 19.2594 227.016 19.395 226.737 19.6437C226.457 19.9149 226.247 20.2314 226.084 20.6157H224.22V13.1787L226.061 13.0204C226.131 13.8794 226.364 14.6706 226.76 15.3713C227.156 16.0721 227.669 16.6824 228.321 17.1797C228.974 17.677 229.743 18.0613 230.628 18.3552C231.514 18.6491 232.516 18.7847 233.588 18.7847C235.172 18.7847 236.384 18.4908 237.223 17.8805C238.062 17.2702 238.481 16.3207 238.481 15.0323C238.481 14.6254 238.341 14.2637 238.085 13.9698C237.829 13.676 237.479 13.4499 237.013 13.2465C236.57 13.0656 236.058 12.9074 235.475 12.7718C234.893 12.6361 234.287 12.5231 233.634 12.4327C232.982 12.3423 232.329 12.2293 231.654 12.1162C231.001 12.0032 230.349 11.8676 229.743 11.7093C228.904 11.4833 228.158 11.2346 227.482 10.9182C226.807 10.6017 226.247 10.2174 225.781 9.74271C225.315 9.268 224.966 8.70288 224.709 8.04734C224.453 7.36919 224.336 6.57801 224.336 5.67382C224.336 4.97306 224.453 4.27231 224.709 3.61677C224.942 2.93862 225.362 2.35089 225.921 1.83097C226.48 1.31106 227.226 0.881566 228.135 0.565097C229.044 0.248628 230.185 0.0903931 231.514 0.0903931C232.772 0.0903931 233.821 0.203418 234.683 0.429467C235.545 0.655517 236.291 0.949381 236.943 1.31106C237.339 1.53711 237.689 1.62753 237.969 1.62753C238.178 1.62753 238.411 1.51451 238.714 1.26585C239.017 1.0172 239.227 0.768542 239.39 0.474677H240.905V7.52742L240.951 7.45961Z" fill="white"/>
</g>
<defs>
<clipPath id="clip0_2004_556">
<rect width="242" height="21" fill="white"/>
</clipPath>
</defs>
</svg>
