<svg width="242" height="120" viewBox="0 0 242 120" fill="none" xmlns="http://www.w3.org/2000/svg">
<path d="M134.456 32.4528C134.46 32.572 134.46 32.6912 134.46 32.8144V33.0051C134.46 33.1283 134.456 33.2555 134.452 33.3787C134.162 41.0758 127.958 47.2589 120.245 47.549C120.118 47.5529 119.994 47.5569 119.871 47.5609H119.648C119.588 47.5609 119.528 47.5609 119.472 47.5569H119.325C115.078 47.4496 111.277 45.5541 108.652 42.5937C109.038 42.6255 109.429 42.6454 109.823 42.6454C117.986 42.6454 124.608 36.041 124.608 27.8989C124.608 24.1715 123.217 20.766 120.927 18.1712C128.321 18.7752 134.17 24.8153 134.452 32.274C134.452 32.3336 134.452 32.3932 134.452 32.4528H134.456Z" fill="white"/>
<path d="M152.512 42.5864L149.556 40.5678C144.576 37.1663 144.576 29.8347 149.556 26.4332L152.512 24.4146C153.432 23.7827 152.962 22.3482 151.846 22.3761L148.269 22.4754C142.233 22.6423 137.914 16.7135 139.938 11.039L141.137 7.67326C141.512 6.62817 140.285 5.73806 139.4 6.41757L136.564 8.59517C131.779 12.2669 124.791 10.0019 123.086 4.22804L122.074 0.798719C121.759 -0.26624 120.241 -0.26624 119.926 0.798719L118.914 4.22804C117.209 10.0019 110.221 12.2669 105.436 8.59517L102.6 6.41757C101.715 5.73806 100.488 6.62817 100.863 7.67326L102.062 11.039C104.086 16.7135 99.7671 22.6423 93.7313 22.4754L90.1536 22.3761C89.0381 22.3482 88.568 23.7827 89.4883 24.4146L92.4444 26.4332C97.4245 29.8347 97.4245 37.1663 92.4444 40.5678L89.4883 42.5864C88.568 43.2143 89.0381 44.6528 90.1536 44.621L93.7313 44.5256C99.7671 44.3587 104.086 50.2875 102.062 55.958L100.863 59.3238C100.488 60.3728 101.715 61.2629 102.6 60.5834L105.436 58.4058C110.221 54.7341 117.209 56.9991 118.914 62.7729L119.926 66.1983C120.241 67.2672 121.759 67.2672 122.074 66.1983L123.086 62.7729C124.791 56.9991 131.779 54.7341 136.564 58.4058L139.4 60.5834C140.285 61.2629 141.512 60.3728 141.137 59.3238L139.938 55.958C137.914 50.2875 142.233 44.3587 148.269 44.5256L151.846 44.621C152.962 44.6528 153.432 43.2143 152.512 42.5864ZM121.002 53.9354C109.683 53.9354 100.508 44.7879 100.508 33.4985C100.508 22.2092 109.683 13.0616 121.002 13.0616C132.321 13.0616 141.492 22.2131 141.492 33.4985C141.492 44.7839 132.317 53.9354 121.002 53.9354Z" fill="white"/>
<g clip-path="url(#clip0_2004_551)">
<path d="M18.5724 105.51L16.6149 105.623C16.3819 102.888 15.1935 101.532 13.0263 101.532H6.75782V108.087H9.95031C11.0688 108.087 11.7213 107.002 11.8844 104.809H13.6555L13.236 113.264H11.5349C11.3485 111.026 10.7659 109.896 9.76389 109.896H6.78113V117.446H12.0476C15.1701 117.446 16.9179 115.502 17.2441 111.636L19.2481 111.817L18.5724 119.548H0V118.011C1.6545 118.011 2.4934 117.604 2.4934 116.767V102.255C2.4934 101.419 1.6545 101.012 0 101.012V99.4069H18.5724V105.51Z" fill="white"/>
<path d="M46.862 101.012C46.0231 101.012 45.4172 101.08 45.0677 101.215C44.7181 101.351 44.4851 101.554 44.3919 101.803L37.401 119.57H33.3463L26.6351 101.826C26.5186 101.554 26.2623 101.351 25.8428 101.215C25.4234 101.08 24.934 101.012 24.3281 101.012V99.4069H34.5348V101.012H32.0647C31.5287 101.012 31.2491 101.17 31.2491 101.464C31.2491 101.577 31.2724 101.69 31.3423 101.826L36.7019 116.315L42.0616 102.052C42.1082 101.916 42.1548 101.803 42.1548 101.667C42.1548 101.238 41.7353 101.012 40.8964 101.012H39.172V99.4069H46.8154V101.012H46.862Z" fill="white"/>
<path d="M70.3047 105.51L68.3472 105.623C68.1142 102.888 66.9258 101.532 64.7586 101.532H58.4901V108.087H61.6826C62.8011 108.087 63.4536 107.002 63.6167 104.809H65.3878L64.9683 113.264H63.2672C63.0808 111.026 62.4982 109.896 61.4962 109.896H58.5134V117.446H63.7799C66.9024 117.446 68.6502 115.502 68.9764 111.636L70.9804 111.817L70.3047 119.548H51.7323V118.011C53.3868 118.011 54.2257 117.604 54.2257 116.767V102.255C54.2257 101.419 53.3868 101.012 51.7323 101.012V99.4069H70.3047V105.51Z" fill="white"/>
<path d="M99.107 101.012C97.4525 101.012 96.6136 101.419 96.6136 102.255V119.57H91.4403L80.9074 103.318V116.767C80.9074 117.604 81.7463 118.011 83.4008 118.011V119.548H76.1071V118.011C77.7616 118.011 78.6005 117.604 78.6005 116.767V102.255C78.6005 101.419 77.7616 101.012 76.1071 101.012V99.4069H83.6106L94.3299 116.067V102.255C94.3299 101.419 93.491 101.012 91.8365 101.012V99.4069H99.1303V101.012H99.107Z" fill="white"/>
<path d="M124.6 107.703L122.829 107.793C122.759 106.573 122.62 105.578 122.433 104.764C122.247 103.95 121.967 103.318 121.641 102.843C121.315 102.368 120.918 102.029 120.452 101.848C119.986 101.667 119.427 101.554 118.798 101.554H116.281V116.767C116.281 117.604 117.12 118.011 118.798 118.011V119.548H109.523V118.011C111.178 118.011 112.017 117.604 112.017 116.767V101.554H109.477C108.848 101.554 108.288 101.645 107.822 101.848C107.356 102.052 106.96 102.368 106.634 102.843C106.308 103.318 106.051 103.973 105.841 104.764C105.632 105.555 105.515 106.573 105.445 107.793L103.674 107.703V99.4295H124.624V107.703H124.6Z" fill="white"/>
<path d="M140.236 99.0001C141.728 99.0001 143.103 99.1809 144.384 99.5426C145.666 99.9043 146.761 100.492 147.693 101.306C148.626 102.12 149.348 103.205 149.861 104.538C150.373 105.872 150.653 107.522 150.653 109.466C150.653 111.071 150.42 112.518 149.977 113.806C149.534 115.095 148.859 116.202 147.973 117.107C147.088 118.011 145.946 118.712 144.594 119.232C143.243 119.729 141.658 119.977 139.84 119.977C138.372 119.977 136.997 119.797 135.739 119.458C134.481 119.118 133.385 118.553 132.453 117.762C131.521 116.971 130.799 115.931 130.263 114.643C129.727 113.354 129.471 111.772 129.471 109.896C129.471 108.223 129.68 106.708 130.076 105.352C130.473 103.996 131.125 102.866 132.011 101.916C132.896 100.967 134.015 100.243 135.366 99.746C136.718 99.2487 138.349 98.9775 140.26 98.9775L140.236 99.0001ZM140.376 101.215C139.211 101.215 138.232 101.374 137.394 101.713C136.555 102.052 135.879 102.526 135.343 103.159C134.807 103.792 134.411 104.561 134.178 105.488C133.921 106.415 133.805 107.454 133.805 108.63C133.805 110.461 133.945 111.953 134.224 113.128C134.504 114.304 134.9 115.208 135.436 115.886C135.949 116.564 136.601 117.039 137.347 117.287C138.093 117.559 138.932 117.672 139.864 117.672C141.099 117.672 142.124 117.491 142.963 117.152C143.802 116.79 144.478 116.293 144.967 115.615C145.48 114.937 145.829 114.1 146.062 113.083C146.295 112.088 146.388 110.935 146.388 109.624C146.388 107.952 146.249 106.55 145.946 105.465C145.643 104.38 145.247 103.521 144.734 102.888C144.221 102.255 143.592 101.803 142.846 101.554C142.101 101.306 141.285 101.17 140.4 101.17L140.376 101.215Z" fill="white"/>
<path d="M177.265 116.587C177.265 117.491 176.985 118.237 176.449 118.847C175.913 119.457 174.981 119.751 173.676 119.751C172.231 119.751 171.183 119.412 170.577 118.757C169.971 118.101 169.645 117.287 169.645 116.293V114.258C169.645 112.744 169.412 111.636 168.969 110.935C168.526 110.235 167.711 109.896 166.499 109.896H162.258V116.722C162.258 117.559 163.283 117.966 165.357 117.966V119.548H155.477V117.966C157.131 117.966 157.97 117.559 157.97 116.722V102.255C157.97 101.419 157.131 101.012 155.477 101.012V99.4069H167.454C168.363 99.4069 169.272 99.4747 170.134 99.5877C171.02 99.7007 171.789 99.9494 172.464 100.311C173.14 100.673 173.699 101.193 174.096 101.848C174.515 102.504 174.701 103.385 174.701 104.47C174.701 105.171 174.585 105.804 174.375 106.324C174.142 106.866 173.862 107.319 173.49 107.703C173.117 108.087 172.721 108.381 172.231 108.63C171.765 108.856 171.276 109.037 170.787 109.15C171.276 109.308 171.695 109.534 172.091 109.783C172.488 110.054 172.814 110.37 173.07 110.777C173.327 111.184 173.536 111.681 173.676 112.246C173.816 112.834 173.886 113.512 173.886 114.304V116.79C173.886 117.197 173.979 117.491 174.142 117.672C174.305 117.853 174.538 117.966 174.795 117.966C175.074 117.966 175.307 117.875 175.47 117.672C175.634 117.468 175.727 117.197 175.727 116.79V115.479H177.218V116.564L177.265 116.587ZM162.281 101.69V108.087H166.872C167.99 108.087 168.852 107.839 169.435 107.341C170.041 106.844 170.32 106.008 170.32 104.809C170.32 102.73 169.155 101.69 166.848 101.69H162.258H162.281Z" fill="white"/>
<path d="M191.386 101.012C189.732 101.012 188.893 101.419 188.893 102.255V116.767C188.893 117.604 189.732 118.011 191.386 118.011V119.548H182.112V118.011C183.789 118.011 184.628 117.604 184.628 116.767V102.255C184.628 101.419 183.789 101.012 182.112 101.012V99.4069H191.386V101.012Z" fill="white"/>
<path d="M216.763 117.174C216.949 117.717 217.718 117.988 219.047 117.988V119.57H208.817V117.988H211.287C211.823 117.988 212.102 117.807 212.102 117.468C212.102 117.423 212.079 117.31 212.009 117.174L210.891 114.236H202.315L201.29 116.948C201.29 116.948 201.243 117.174 201.243 117.265C201.243 117.739 201.663 117.966 202.478 117.966H204.203V119.548H196.559V117.943C197.352 117.943 197.911 117.875 198.284 117.762C198.657 117.626 198.89 117.446 198.983 117.197L205.974 99.4069H210.028L216.763 117.174ZM203.038 112.246H210.192L206.65 102.707L203.038 112.246Z" fill="white"/>
<path d="M240.951 106.46L239.087 106.708C238.971 105.759 238.714 104.945 238.341 104.267C237.945 103.589 237.456 103.001 236.85 102.549C236.244 102.097 235.568 101.758 234.776 101.554C233.984 101.328 233.145 101.238 232.236 101.238C230.861 101.238 229.743 101.464 228.904 101.916C228.065 102.368 227.622 103.091 227.622 104.109C227.622 104.719 227.832 105.216 228.228 105.555C228.648 105.917 229.183 106.188 229.859 106.414C230.535 106.64 231.304 106.821 232.166 106.98C233.028 107.115 233.914 107.273 234.799 107.454C235.685 107.635 236.57 107.839 237.433 108.11C238.295 108.381 239.064 108.743 239.74 109.195C240.415 109.647 240.951 110.235 241.371 110.958C241.79 111.681 241.977 112.563 241.977 113.648C241.977 114.733 241.79 115.682 241.394 116.474C241.021 117.265 240.462 117.92 239.763 118.463C239.064 118.983 238.202 119.367 237.223 119.638C236.244 119.887 235.126 120.023 233.914 120.023C232.702 120.023 231.607 119.887 230.721 119.638C229.813 119.367 229.02 119.028 228.298 118.576C227.972 118.35 227.645 118.259 227.343 118.259C227.203 118.259 227.016 118.395 226.737 118.644C226.457 118.915 226.247 119.231 226.084 119.616H224.22V112.179L226.061 112.02C226.131 112.879 226.364 113.671 226.76 114.371C227.156 115.072 227.669 115.682 228.321 116.18C228.974 116.677 229.743 117.061 230.628 117.355C231.514 117.649 232.516 117.785 233.588 117.785C235.172 117.785 236.384 117.491 237.223 116.88C238.062 116.27 238.481 115.321 238.481 114.032C238.481 113.625 238.341 113.264 238.085 112.97C237.829 112.676 237.479 112.45 237.013 112.246C236.57 112.066 236.058 111.907 235.475 111.772C234.893 111.636 234.287 111.523 233.634 111.433C232.982 111.342 232.329 111.229 231.654 111.116C231.001 111.003 230.349 110.868 229.743 110.709C228.904 110.483 228.158 110.235 227.482 109.918C226.807 109.602 226.247 109.217 225.781 108.743C225.315 108.268 224.966 107.703 224.709 107.047C224.453 106.369 224.336 105.578 224.336 104.674C224.336 103.973 224.453 103.272 224.709 102.617C224.942 101.939 225.362 101.351 225.921 100.831C226.48 100.311 227.226 99.8816 228.135 99.5651C229.044 99.2486 230.185 99.0904 231.514 99.0904C232.772 99.0904 233.821 99.2034 234.683 99.4295C235.545 99.6555 236.291 99.9494 236.943 100.311C237.339 100.537 237.689 100.628 237.969 100.628C238.178 100.628 238.411 100.515 238.714 100.266C239.017 100.017 239.227 99.7685 239.39 99.4747H240.905V106.527L240.951 106.46Z" fill="white"/>
</g>
<defs>
<clipPath id="clip0_2004_551">
<rect width="242" height="21" fill="white" transform="translate(0 99)"/>
</clipPath>
</defs>
</svg>
